<?xml version="1.0" encoding="UTF-8" standalone="no"?>
<!-- Created with Inkscape (http://www.inkscape.org/) -->

<svg
   xmlns:dc="http://purl.org/dc/elements/1.1/"
   xmlns:cc="http://creativecommons.org/ns#"
   xmlns:rdf="http://www.w3.org/1999/02/22-rdf-syntax-ns#"
   xmlns:svg="http://www.w3.org/2000/svg"
   xmlns="http://www.w3.org/2000/svg"
   xmlns:sodipodi="http://sodipodi.sourceforge.net/DTD/sodipodi-0.dtd"
   xmlns:inkscape="http://www.inkscape.org/namespaces/inkscape"
   id="svg3004"
   version="1.1"
   inkscape:version="0.48.3.1 r9886"
   width="500"
   height="300"
   xml:space="preserve"
   sodipodi:docname="r2.svg"><metadata
     id="metadata3010"><rdf:RDF><cc:Work
         rdf:about=""><dc:format>image/svg+xml</dc:format><dc:type
           rdf:resource="http://purl.org/dc/dcmitype/StillImage" /><dc:title></dc:title></cc:Work></rdf:RDF></metadata><defs
     id="defs3008"><clipPath
       clipPathUnits="userSpaceOnUse"
       id="clipPath3018"><path
         d="m 0,841.89 1190.55,0 L 1190.55,0 0,0 0,841.89 z"
         id="path3020"
         inkscape:connector-curvature="0" /></clipPath></defs><sodipodi:namedview
     pagecolor="#ffffff"
     bordercolor="#666666"
     borderopacity="1"
     objecttolerance="10"
     gridtolerance="10"
     guidetolerance="10"
     inkscape:pageopacity="0"
     inkscape:pageshadow="2"
     inkscape:window-width="1405"
     inkscape:window-height="764"
     id="namedview3006"
     showgrid="false"
     inkscape:zoom="1"
     inkscape:cx="233.55941"
     inkscape:cy="199.07381"
     inkscape:window-x="144"
     inkscape:window-y="269"
     inkscape:window-maximized="0"
     inkscape:current-layer="g3012"
     showguides="true"
     inkscape:guide-bbox="true"><sodipodi:guide
       orientation="0,1"
       position="-172.73628,-108.0709"
       id="guide3865" /></sodipodi:namedview><g
     id="g3012"
     inkscape:groupmode="layer"
     inkscape:label="radare primeros bocetos"
     transform="matrix(1.25,0,0,-1.25,0,299.99995)"><g
       id="g4037"
       transform="matrix(0.52646936,0,0,0.52646936,-198.78755,-329.13702)"
       style="fill:#000000"><path
         d="m 717.48563,860.61081 0,-95.251 11.881,0 0,-5.379 -82.928,0 0,5.379 15.912,0 0,51.547 c 0,9.188 0.673,17.258 -2.463,25.998 -0.673,2.241 -7.394,15.015 -10.758,9.413 0.898,-3.363 1.346,-7.172 1.346,-10.536 0,-15.013 -10.311,-24.65 -25.102,-24.65 -15.464,0 -26.221,10.757 -26.221,26.221 0,16.136 14.12,24.875 28.911,24.875 15.909,0 28.683,-8.514 36.085,-22.186 l 0.444,0 0,22.637 c 21.513,-0.673 43.254,-2.69 64.774,-2.69 l 0,-5.378 -11.881,0 z"
         style="fill:#000000;fill-opacity:1;fill-rule:nonzero;stroke:none"
         id="path3492-8"
         inkscape:connector-curvature="0" /><path
         d="m 717.30203,814.96091 109.965,54.98 0,-109.96 -109.965,54.98 z"
         style="fill:#000000;fill-opacity:1;fill-rule:nonzero;stroke:none"
         id="path3496-8"
         inkscape:connector-curvature="0" /><path
         d="m 827.26683,814.96091 109.959,54.98 0,-109.96 -109.959,54.98 z"
         style="fill:#000000;fill-opacity:1;fill-rule:nonzero;stroke:none"
         id="path3500-9"
         inkscape:connector-curvature="0" /></g><path
       style="fill:none;stroke:#000000;stroke-width:10.65598011;stroke-linecap:round;stroke-linejoin:miter;stroke-miterlimit:4;stroke-opacity:1;stroke-dasharray:none"
       d="m 203.46377,187.28612 c -27.45075,0 -50.35246,-19.3712 -55.57394,-45.10349 -3.44679,1.17208 -7.14406,1.80525 -10.97036,1.80525 -19.34846,0 -35.02186,-16.21547 -35.02186,-36.21609 0,-0.60638 0.027,-1.20619 0.0555,-1.80525 -3.102214,0.66791 -10.581311,5.31225 -13.823552,6.53848 C 66.272675,120.77134 53.229297,100.0373 53.47142,87.7148 53.817231,70.11472 74.932632,60.54264 91.672305,60.54264 c 4.844066,0 6.2612,0 15.831735,0 l 167.32364,0 c 1.76127,-0.25453 13.79694,0 15.62247,0 22.39201,0 38.1869,29.96252 38.1869,54.31111 0,24.34861 -18.15669,44.10366 -40.5487,44.10366 -11.72773,0 -22.28649,-5.42553 -29.68942,-14.08095 -6.22222,24.37946 -28.45059,42.40951 -54.93517,42.40951 z"
       id="path3853"
       inkscape:connector-curvature="0"
       sodipodi:nodetypes="ccsscsssccssscsc" /></g></svg>