<?xml version="1.0" encoding="UTF-8" standalone="no"?>
<!-- Created with Inkscape (http://www.inkscape.org/) -->

<svg
   xmlns:dc="http://purl.org/dc/elements/1.1/"
   xmlns:cc="http://creativecommons.org/ns#"
   xmlns:rdf="http://www.w3.org/1999/02/22-rdf-syntax-ns#"
   xmlns:svg="http://www.w3.org/2000/svg"
   xmlns="http://www.w3.org/2000/svg"
   xmlns:sodipodi="http://sodipodi.sourceforge.net/DTD/sodipodi-0.dtd"
   xmlns:inkscape="http://www.inkscape.org/namespaces/inkscape"
   width="577.00684"
   height="186.00784"
   id="svg2"
   version="1.1"
   inkscape:version="0.92.3 (2405546, 2018-03-11)"
   sodipodi:docname="Radare2_white.svg"
   inkscape:export-filename="/home/msancho/bitmap2.png"
   inkscape:export-xdpi="600"
   inkscape:export-ydpi="600">
  <defs
     id="defs4" />
  <sodipodi:namedview
     id="base"
     pagecolor="#ffffff"
     bordercolor="#666666"
     borderopacity="1.0"
     inkscape:pageopacity="0.0"
     inkscape:pageshadow="2"
     inkscape:zoom="1.4"
     inkscape:cx="296.46842"
     inkscape:cy="9.9110278"
     inkscape:document-units="px"
     inkscape:current-layer="layer1"
     showgrid="false"
     inkscape:window-width="1912"
     inkscape:window-height="1043"
     inkscape:window-x="0"
     inkscape:window-y="18"
     inkscape:window-maximized="1"
     fit-margin-top="0"
     fit-margin-left="0"
     fit-margin-right="0"
     fit-margin-bottom="0" />
  <metadata
     id="metadata7">
    <rdf:RDF>
      <cc:Work
         rdf:about="">
        <dc:format>image/svg+xml</dc:format>
        <dc:type
           rdf:resource="http://purl.org/dc/dcmitype/StillImage" />
        <dc:title></dc:title>
      </cc:Work>
    </rdf:RDF>
  </metadata>
  <g
     inkscape:label="Calque 1"
     inkscape:groupmode="layer"
     id="layer1"
     transform="translate(-84.742798,-728.74085)">
    <path
       style="fill:#000000"
       d="m 306.49965,906.74869 -20,0 0,-164 10,0 10,0 0,-3.84123 0,-3.84124 -25.25,-0.66707 c -13.8875,-0.36689 -35.6,-1.32573 -48.25,-2.13076 -12.65,-0.80502 -26.0375,-1.47628 -29.75,-1.49169 l -6.75,-0.028 -0.76637,38 c -0.4215,0 -2.25213,-2.48403 -4.06806,-5.52007 -4.51661,-7.55126 -15.36103,-18.1989 -23.18268,-22.76201 -15.9463,-9.30299 -37.6226,-11.56618 -54.93134,-5.73529 -20.001803,6.73812 -31.424583,24.98116 -28.296333,45.19138 2.38828,15.4296 12.54802,29.07772 25.155393,33.79256 17.91799,6.70088 37.7951,3.51356 49.13714,-7.8792 11.21018,-11.26031 13.00051,-19.15222 10.65232,-46.95637 -0.30172,-3.57261 2.61758,-5.0022 6.03921,-2.95744 4.10037,2.45037 10.9097,12.95015 13.19334,20.34371 3.54575,11.4798 4.06738,21.3172 4.06738,76.7065 l 0,53.77623 -28,0 c 0,2.66667 0,5.33333 0,8 l 141,0 z m 167.50143,-178 c 10e-4,-0.99184 -185.50101,92.50802 -185.48542,92.99748 0.0266,0.83328 185.23275,93.18116 185.23399,92.27062 z m 187.54234,0.1667 c -2.92931,1.02113 -185.03629,92.3869 -184.99916,92.81682 0.0715,0.82727 184.37682,92.62058 185.20539,92.24156 z"
       id="path3023"
       inkscape:connector-curvature="0"
       sodipodi:nodetypes="cccccccsssccsssssssssscccccscsscccc" />
    <path
       style="fill:#ffffff;stroke-width:0.71428573"
       d="m 117.59341,1.0694516 c -2.65159,0.1161295 -7.82989,-0.29353093 -7.13588,3.8351005 -0.46466,10.5578939 -0.065,21.1698679 -0.52037,31.6964289 C 100.2516,22.698338 87.532723,9.8364443 70.846216,4.9465243 59.708489,1.0662455 47.598423,1.8707041 36.05044,2.8830676 20.271994,5.7094549 5.5317173,16.709307 0.87605434,32.443614 -5.5136895,51.720813 4.2667163,74.384031 21.658411,84.275503 c 17.248623,8.295471 40.001134,7.057457 54.122776,-6.770507 7.71565,-7.028934 12.168907,-17.369988 11.374079,-27.841599 0.28105,-7.273101 -0.511486,-14.623606 0.171678,-21.854269 4.527322,-0.769814 7.31495,4.477813 9.768793,7.454153 8.605533,11.977182 9.645703,26.984102 9.817543,41.177415 0.68573,33.398154 0.29743,66.881494 0.42064,100.312354 -9.182226,0.25894 -18.598818,-0.50784 -27.638111,0.37667 0.431193,3.17575 -2.582365,11.0964 2.924107,10.19531 46.428574,0 92.857144,0 139.285714,0 1.38109,-2.12032 2.35769,-9.62426 -0.71429,-10.57198 -6.09514,0 -12.19029,0 -18.28543,0 0,-53.85696 0,-107.713919 0,-161.570875 6.56566,-0.248065 13.35793,0.495592 19.78097,-0.376674 -0.34972,-3.011124 2.41341,-10.2128285 -2.86175,-9.4726219 -31.11704,-1.455909 -62.26504,-2.2624623 -93.36314,-4.1434498 -2.9549,-0.099836 -5.91185,-0.1767794 -8.86858,-0.1199777 z"
       id="path68"
       inkscape:connector-curvature="0"
       transform="translate(84.742798,728.74085)" />
    <path
       style="fill:#ffffff;stroke-width:0.50507629"
       d="M 388.32474,-0.75406957 C 357.55884,13.875555 327.25481,29.486093 296.75737,44.675218 c -31.08234,15.768633 -62.36617,31.16451 -93.17019,47.46726 -1.4532,2.308805 2.68433,2.726872 3.92949,3.865026 55.34668,28.247046 110.89436,56.103586 166.67146,83.490006 4.76229,2.2051 9.43274,4.66768 14.33095,6.54871 2.37728,-0.56254 1.0347,-4.02146 1.52219,-5.78734 0.53767,-52.29439 0.26152,-104.595656 0.21619,-156.892548 -0.26273,-7.832014 0.34778,-15.7833115 -0.66707,-23.54725838 -0.22379,-0.46808642 -0.75953,-0.7117366 -1.26565,-0.57314319 z"
       id="path70"
       inkscape:connector-curvature="0"
       transform="translate(84.742798,728.74085)" />
    <path
       inkscape:export-filename="/home/msancho/path72.png"
       inkscape:export-xdpi="600"
       inkscape:export-ydpi="600"
       style="fill:#ffffff;stroke-width:0.50507629"
       d="M 576.02667,-0.81819059 C 514.42864,30.061841 452.76639,60.8144 391.2536,91.863308 c -1.51054,2.336548 2.8016,3.278 4.25728,4.344449 56.11306,28.350383 112.30408,56.555813 168.77412,84.189343 4.21565,1.73499 8.21672,4.4868 12.59953,5.58135 1.86152,-1.49679 0.61932,-4.68556 1.10356,-6.80087 0.34952,-53.66255 0.0518,-107.329758 -0.31696,-160.99195 -0.29424,-6.265078 0.31676,-12.7370865 -0.54848,-18.87163265 -0.36435,0.0218381 -0.73548,-0.41525555 -1.09598,-0.13218794 z"
       id="path72"
       inkscape:connector-curvature="0"
       transform="translate(84.742798,728.74085)" />
  </g>
</svg>
