<?xml version="1.0" encoding="UTF-8" standalone="no"?>
<!-- Created with Inkscape (http://www.inkscape.org/) -->

<svg
   xmlns:dc="http://purl.org/dc/elements/1.1/"
   xmlns:cc="http://creativecommons.org/ns#"
   xmlns:rdf="http://www.w3.org/1999/02/22-rdf-syntax-ns#"
   xmlns:svg="http://www.w3.org/2000/svg"
   xmlns="http://www.w3.org/2000/svg"
   xmlns:sodipodi="http://sodipodi.sourceforge.net/DTD/sodipodi-0.dtd"
   xmlns:inkscape="http://www.inkscape.org/namespaces/inkscape"
   id="svg3004"
   version="1.1"
   inkscape:version="0.92.3 (2405546, 2018-03-11)"
   width="533.33331"
   height="320"
   xml:space="preserve"
   sodipodi:docname="logo-r2.svg"
   viewBox="0 0 500 300"><metadata
     id="metadata3010"><rdf:RDF><cc:Work
         rdf:about=""><dc:format>image/svg+xml</dc:format><dc:type
           rdf:resource="http://purl.org/dc/dcmitype/StillImage" /><dc:title></dc:title></cc:Work></rdf:RDF></metadata><defs
     id="defs3008"><clipPath
       clipPathUnits="userSpaceOnUse"
       id="clipPath3018"><path
         d="M 0,841.89 H 1190.55 V 0 H 0 Z"
         id="path3020"
         inkscape:connector-curvature="0" /></clipPath></defs><sodipodi:namedview
     pagecolor="#ffffff"
     bordercolor="#666666"
     borderopacity="1"
     objecttolerance="10"
     gridtolerance="10"
     guidetolerance="10"
     inkscape:pageopacity="0"
     inkscape:pageshadow="2"
     inkscape:window-width="3200"
     inkscape:window-height="1671"
     id="namedview3006"
     showgrid="false"
     inkscape:zoom="1"
     inkscape:cx="720.70106"
     inkscape:cy="356.77258"
     inkscape:window-x="0"
     inkscape:window-y="55"
     inkscape:window-maximized="1"
     inkscape:current-layer="g3012" /><g
     id="g3012"
     inkscape:groupmode="layer"
     inkscape:label="radare primeros bocetos"
     transform="matrix(1.25,0,0,-1.25,0,299.99995)"><g
       id="g4037"
       transform="translate(-574.48081,-692.03162)"><path
         d="m 717.48563,860.61081 v -95.251 h 11.881 v -5.379 h -82.928 v 5.379 h 15.912 v 51.547 c 0,9.188 0.673,17.258 -2.463,25.998 -0.673,2.241 -7.394,15.015 -10.758,9.413 0.898,-3.363 1.346,-7.172 1.346,-10.536 0,-15.013 -10.311,-24.65 -25.102,-24.65 -15.464,0 -26.221,10.757 -26.221,26.221 0,16.136 14.12,24.875 28.911,24.875 15.909,0 28.683,-8.514 36.085,-22.186 h 0.444 v 22.637 c 21.513,-0.673 43.254,-2.69 64.774,-2.69 v -5.378 z"
         style="fill:#231f20;fill-opacity:1;fill-rule:nonzero;stroke:none"
         id="path3492-8"
         inkscape:connector-curvature="0" /><path
         d="m 717.30203,814.96091 109.965,54.98 v -109.96 z"
         style="fill:#231f20;fill-opacity:1;fill-rule:nonzero;stroke:none"
         id="path3496-8"
         inkscape:connector-curvature="0" /><path
         d="m 827.26683,814.96091 109.959,54.98 v -109.96 z"
         style="fill:#231f20;fill-opacity:1;fill-rule:nonzero;stroke:none"
         id="path3500-9"
         inkscape:connector-curvature="0" /></g><path
       style="fill:#ffffff"
       d="m 96.101065,225.92742 v -3.5 h 10.999995 11 l -0.0271,-39.75 c -0.0374,-54.8572 -0.95019,-62.4304 -8.76865,-72.75 -3.04521,-4.01938 -4.36831,-5 -6.7462,-5 -2.561716,0 -2.921299,0.33496 -2.683788,2.5 0.150838,1.375 0.361738,6.775 0.468658,12 0.17142,8.37721 -0.11187,10.15003 -2.396883,15 -3.149782,6.68543 -7.594537,11.29718 -14.298556,14.83578 -4.539312,2.39599 -6.104582,2.66422 -15.547476,2.66422 -8.651413,0 -11.323179,-0.38044 -15.17567,-2.16089 -7.045918,-3.25631 -13.144443,-9.43712 -16.370755,-16.59163 -3.771081,-8.36257 -4.027245,-19.70173 -0.615549,-27.24748 9.234064,-20.423256 39.478199,-26.639465 62.881382,-12.924286 5.682687,3.330275 14.423597,12.105806 17.804687,17.875186 1.46641,2.50224 3.07338,4.29787 3.57105,3.9903 0.49767,-0.30758 0.90485,-7.05768 0.90485,-15.000217 V 85.42742 l 8.25,0.0214 c 4.5375,0.01177 14.76148,0.44162 22.71995,0.955226 7.95847,0.513605 23.37097,1.246972 34.25,1.629703 l 19.78005,0.695876 v 2.848899 2.848899 h -8 -8 v 64 64 h 8 8 v 3.5 3.5 h -55 -54.999995 z"
       id="path3716"
       inkscape:connector-curvature="0"
       transform="matrix(0.75000001,0,0,-0.75000001,0,239.99996)" /><path
       style="fill:#ffffff"
       d="m 263.60384,192.17889 -71.99722,-36.00148 71.85741,-35.93147 c 39.52157,-19.76232 72.03582,-35.753066 72.25388,-35.535003 0.21806,0.218062 0.28098,32.587893 0.13981,71.932953 l -0.25666,71.53647 z"
       id="path3718"
       inkscape:connector-curvature="0"
       transform="matrix(0.75000001,0,0,-0.75000001,0,239.99996)" /><path
       style="fill:#ffffff"
       d="m 410.34922,192.12019 -72.25184,-36.19735 72.50184,-36.2468 72.50184,-36.246798 v 72.499088 c 0,39.8745 -0.1125,72.47437 -0.25,72.44415 -0.1375,-0.0302 -32.76333,-16.34375 -72.50184,-36.25229 z"
       id="path3720"
       inkscape:connector-curvature="0"
       transform="matrix(0.75000001,0,0,-0.75000001,0,239.99996)" /></g></svg>