<?xml version="1.0" encoding="UTF-8" standalone="no"?>
<!-- Created with Inkscape (http://www.inkscape.org/) -->

<svg
   xmlns:dc="http://purl.org/dc/elements/1.1/"
   xmlns:cc="http://creativecommons.org/ns#"
   xmlns:rdf="http://www.w3.org/1999/02/22-rdf-syntax-ns#"
   xmlns:svg="http://www.w3.org/2000/svg"
   xmlns="http://www.w3.org/2000/svg"
   xmlns:xlink="http://www.w3.org/1999/xlink"
   xmlns:sodipodi="http://sodipodi.sourceforge.net/DTD/sodipodi-0.dtd"
   xmlns:inkscape="http://www.inkscape.org/namespaces/inkscape"
   width="744.09448819"
   height="1052.3622047"
   id="svg2"
   version="1.1"
   inkscape:version="0.48.4 r9939"
   sodipodi:docname="keepr2.svg"
   inkscape:export-filename="/tmp/keepr2.png"
   inkscape:export-xdpi="236.45279"
   inkscape:export-ydpi="236.45279">
  <defs
     id="defs4">
    <linearGradient
       id="linearGradient3850">
      <stop
         style="stop-color:#9f0000;stop-opacity:1;"
         offset="0"
         id="stop3852" />
      <stop
         style="stop-color:#300000;stop-opacity:1;"
         offset="1"
         id="stop3854" />
    </linearGradient>
    <clipPath
       id="clipPath3018"
       clipPathUnits="userSpaceOnUse">
      <path
         inkscape:connector-curvature="0"
         id="path3020"
         d="m 0,841.89 1190.55,0 L 1190.55,0 0,0 0,841.89 z" />
    </clipPath>
    <radialGradient
       inkscape:collect="always"
       xlink:href="#linearGradient3850"
       id="radialGradient3856"
       cx="405"
       cy="436.6479"
       fx="405"
       fy="436.6479"
       r="243.57143"
       gradientTransform="matrix(1,0,0,1.3665689,0,-160.06156)"
       gradientUnits="userSpaceOnUse" />
  </defs>
  <sodipodi:namedview
     id="base"
     pagecolor="#ffffff"
     bordercolor="#666666"
     borderopacity="1.0"
     inkscape:pageopacity="0.0"
     inkscape:pageshadow="2"
     inkscape:zoom="1.4"
     inkscape:cx="198.98644"
     inkscape:cy="650.17143"
     inkscape:document-units="px"
     inkscape:current-layer="layer1"
     showgrid="false"
     showguides="true"
     inkscape:guide-bbox="true"
     inkscape:window-width="1382"
     inkscape:window-height="905"
     inkscape:window-x="2274"
     inkscape:window-y="65"
     inkscape:window-maximized="0" />
  <metadata
     id="metadata7">
    <rdf:RDF>
      <cc:Work
         rdf:about="">
        <dc:format>image/svg+xml</dc:format>
        <dc:type
           rdf:resource="http://purl.org/dc/dcmitype/StillImage" />
        <dc:title></dc:title>
      </cc:Work>
    </rdf:RDF>
  </metadata>
  <g
     inkscape:label="Layer 1"
     inkscape:groupmode="layer"
     id="layer1">
    <rect
       style="fill:url(#radialGradient3856);fill-opacity:1"
       id="rect3064"
       width="487.14285"
       height="665.71429"
       x="161.42857"
       y="103.79076" />
    <g
       style="font-size:40px;font-style:normal;font-weight:normal;text-align:center;line-height:125%;letter-spacing:0px;word-spacing:0px;text-anchor:middle;fill:#ffffff;fill-opacity:1;stroke:none;font-family:Sans"
       id="text2985">
      <path
         d="m 364.32578,348.93933 14.44,-15.72 -7.36,0 -13.08,14.28 0,-14.28 -6.2,0 0,32 6.2,0 0,-14.16 12.8,14.16 8.08,0 -14.88,-16.28"
         style="font-variant:normal;font-weight:500;font-stretch:normal;fill:#ffffff;font-family:Keep Calm;-inkscape-font-specification:Keep Calm Medium"
         id="path3859" />
      <path
         d="m 403.08953,359.81933 -15.04,0 0,-8.8 14.84,0 0,-5 -14.84,0 0,-7.64 15.04,0 0,-5.12 -21.12,0 0,31.96 21.12,0 0,-5.4"
         style="font-variant:normal;font-weight:500;font-stretch:normal;fill:#ffffff;font-family:Keep Calm;-inkscape-font-specification:Keep Calm Medium"
         id="path3861" />
      <path
         d="m 429.02703,359.81933 -15.04,0 0,-8.8 14.84,0 0,-5 -14.84,0 0,-7.64 15.04,0 0,-5.12 -21.12,0 0,31.96 21.12,0 0,-5.4"
         style="font-variant:normal;font-weight:500;font-stretch:normal;fill:#ffffff;font-family:Keep Calm;-inkscape-font-specification:Keep Calm Medium"
         id="path3863" />
      <path
         d="m 456.24453,343.97933 c 0,-6.07999 -4.92,-10.72 -10.92,-10.72 l -11.48,0 0,31.96 6.2,0 0,-10.44 5.28,0 c 6,0 10.92,-4.68001 10.92,-10.8 m -6.16,-0.08 c 0,3.28 -2.6,6.12 -5.92,6.12 l -4.12,0 0,-12.08 4.12,0 c 3.32,0 5.92,2.68 5.92,5.96"
         style="font-variant:normal;font-weight:500;font-stretch:normal;fill:#ffffff;font-family:Keep Calm;-inkscape-font-specification:Keep Calm Medium"
         id="path3865" />
      <path
         d="m 365.60141,405.01933 c -2.04,2.92 -5.04001,4.88 -9.04,4.88 -5.96,0 -10.88,-4.92001 -10.88,-10.68 0,-5.83999 4.92,-10.72 10.88,-10.72 3.71999,0 7,1.84 8.96,4.72 l 4.28,-4.4 c -3.04,-3.68 -7.76001,-6.2 -13.24,-6.2 -9.47999,0 -17.12,7.32001 -17.12,16.6 0,9.23999 7.64001,16.6 17.12,16.6 5.47999,0 10.16,-2.48 13.36,-6.36 l -4.32,-4.44"
         style="font-variant:normal;font-weight:500;font-stretch:normal;fill:#ffffff;font-family:Keep Calm;-inkscape-font-specification:Keep Calm Medium"
         id="path3867" />
      <path
         d="m 390.30141,383.21933 -4.84,0 -15.12,32 6.8,0 3,-6.4 15.52,0 2.96,6.4 6.8,0 -15.12,-32 m -7.8,20.44 5.4,-11.52 5.32,11.52 -10.72,0"
         style="font-variant:normal;font-weight:500;font-stretch:normal;fill:#ffffff;font-family:Keep Calm;-inkscape-font-specification:Keep Calm Medium"
         id="path3869" />
      <path
         d="m 430.25016,409.21933 -15.32,0 0,-25.96 -6.32,0 0,31.96 21.64,0 0,-6"
         style="font-variant:normal;font-weight:500;font-stretch:normal;fill:#ffffff;font-family:Keep Calm;-inkscape-font-specification:Keep Calm Medium"
         id="path3871" />
      <path
         d="m 465.76453,383.21933 -6.76,0 -9.28,15.88 -8.88,-15.88 -7,0 0,32 6.08,0 0,-21.52 9.68,17.16 10.08,-17 0,21.36 6.08,0 0,-32"
         style="font-variant:normal;font-weight:500;font-stretch:normal;fill:#ffffff;font-family:Keep Calm;-inkscape-font-specification:Keep Calm Medium"
         id="path3873" />
      <path
         d="m 386.34253,429.63232 -2.662,0 -8.316,17.6 3.74,0 1.65,-3.52 8.536,0 1.628,3.52 3.74,0 -8.316,-17.6 m -4.29,11.242 2.97,-6.336 2.926,6.336 -5.896,0"
         style="font-size:22px;font-variant:normal;font-weight:500;font-stretch:normal;fill:#ffffff;font-family:Keep Calm;-inkscape-font-specification:Keep Calm Medium"
         id="path3875" />
      <path
         d="m 411.04234,429.63232 -3.344,0 0,11.484 -7.458,-11.484 -3.828,0 0,17.6 3.344,0 0,-12.342 7.942,12.342 3.344,0 0,-17.6"
         style="font-size:22px;font-variant:normal;font-weight:500;font-stretch:normal;fill:#ffffff;font-family:Keep Calm;-inkscape-font-specification:Keep Calm Medium"
         id="path3877" />
      <path
         d="m 429.97231,438.43232 c 0,-4.84 -3.454,-8.8 -8.294,-8.8 l -7.348,0 0,17.6 7.348,0 c 4.84,0 8.294,-3.96001 8.294,-8.8 m -3.454,-0.088 c 0,3.18999 -2.552,5.984 -5.808,5.984 l -2.97,0 0,-12.012 2.97,0 c 3.256,0 5.808,3.014 5.808,6.028"
         style="font-size:22px;font-variant:normal;font-weight:500;font-stretch:normal;fill:#ffffff;font-family:Keep Calm;-inkscape-font-specification:Keep Calm Medium"
         id="path3879" />
      <path
         d="m 351.69828,460.71933 0,17.68 c 0,5.07999 -2.6,8.8 -8,8.8 -5.15999,0 -7.96,-3.96001 -7.96,-8.88 l 0,-17.6 -6.2,0 0,17.56 c 0,8.43999 5.52001,15 14.28,15 8.91999,0 14.16,-6.72001 14.16,-15.2 l 0,-17.36 -6.28,0"
         style="font-variant:normal;font-weight:500;font-stretch:normal;fill:#ffffff;font-family:Keep Calm;-inkscape-font-specification:Keep Calm Medium"
         id="path3881" />
      <path
         d="m 384.50141,484.31933 c 0,-5 -2.64001,-7.88 -9.04,-10.12 -5,-1.8 -6.56,-2.96 -6.56,-5 0,-1.8 1.88,-3.4 4.28,-3.4 2.71999,0 4.56,0.84 6.16,2.4 l 4.32,-4.36 c -2.6,-2.44 -5.76001,-3.76 -10.68,-3.76 -5.84,0 -10.48,3.80001 -10.48,9.28 0,5.63999 4.24,8.12 8.92,9.84 5.31999,1.92 6.56,2.92 6.56,4.96 0,1.88 -1.92001,3.32 -4.28,3.32 -2.88,0 -5.20001,-0.8 -7.76,-2.92 l -4.4,4.44 c 3.83999,3.08 6.92,4.32 12.44,4.32 6.15999,0 10.52,-4.24 10.52,-9"
         style="font-variant:normal;font-weight:500;font-stretch:normal;fill:#ffffff;font-family:Keep Calm;-inkscape-font-specification:Keep Calm Medium"
         id="path3883" />
      <path
         d="m 410.04266,487.31933 -15.04,0 0,-8.8 14.84,0 0,-5 -14.84,0 0,-7.64 15.04,0 0,-5.12 -21.12,0 0,31.96 21.12,0 0,-5.4"
         style="font-variant:normal;font-weight:500;font-stretch:normal;fill:#ffffff;font-family:Keep Calm;-inkscape-font-specification:Keep Calm Medium"
         id="path3885" />
      <path
         d="m 451.51828,492.71933 c -0.6,-0.96 -1.04,-2.16 -1.64,-3.92 -0.96,-2.84 -1.48,-4.48 -2.24,-6.28 -0.76,-1.96 -1.96,-3.4 -4,-4.16 3.52,-1.16 6,-4.76 6,-8.44 0,-5.23999 -4.08,-9.2 -9.56,-9.2 l -12.64,0.04 0,31.96 6.12,0 0,-12.72 2.32,0 c 3.84,0 5.56,2.24 6.52,5.44 l 2.28,7.28 6.84,0 m -8.12,-22.36 c 0,3 -2.36,4.88 -5.36,4.88 l -4.48,0 0,-9.96 4.48,0 c 3,0 5.36,2.12 5.36,5.08"
         style="font-variant:normal;font-weight:500;font-stretch:normal;fill:#ffffff;font-family:Keep Calm;-inkscape-font-specification:Keep Calm Medium"
         id="path3887" />
      <path
         d="m 477.24891,486.71933 -10.72,0 4.56,-5.68 c 2.91999,-3.68 5.44,-6.76 5.44,-11.12 0,-6.43999 -5.32001,-9.8 -10.84,-9.8 -5.28,0 -8.60001,2 -11.44,5.56 l 4.32,4.28 c 1.59999,-2.4 3.92,-4.08 6.96,-4.08 2.59999,0 4.64,1.72 4.64,4.6 0,2.44 -2.20001,5.28 -4.12,7.64 l -12.32,14.6 23.52,0 0,-6"
         style="font-variant:normal;font-weight:500;font-stretch:normal;fill:#ffffff;font-family:Keep Calm;-inkscape-font-specification:Keep Calm Medium"
         id="path3889" />
      <path
         d="m 320.58953,510.75933 -21.12,0 0,31.96 6.08,0 0,-14.16 14.84,0 0,-5.04 -14.84,0 0,-7.44 15.04,0 0,-5.32"
         style="font-variant:normal;font-weight:500;font-stretch:normal;fill:#ffffff;font-family:Keep Calm;-inkscape-font-specification:Keep Calm Medium"
         id="path3891" />
      <path
         d="m 348.70578,542.71933 c -0.6,-0.96 -1.04,-2.16 -1.64,-3.92 -0.96,-2.84 -1.48,-4.48 -2.24,-6.28 -0.76,-1.96 -1.96,-3.4 -4,-4.16 3.52,-1.16 6,-4.76 6,-8.44 0,-5.23999 -4.08,-9.2 -9.56,-9.2 l -12.64,0.04 0,31.96 6.12,0 0,-12.72 2.32,0 c 3.84,0 5.56,2.24 6.52,5.44 l 2.28,7.28 6.84,0 m -8.12,-22.36 c 0,3 -2.36,4.88 -5.36,4.88 l -4.48,0 0,-9.96 4.48,0 c 3,0 5.36,2.12 5.36,5.08"
         style="font-variant:normal;font-weight:500;font-stretch:normal;fill:#ffffff;font-family:Keep Calm;-inkscape-font-specification:Keep Calm Medium"
         id="path3893" />
      <path
         d="m 385.27641,526.71933 c 0,-9.27999 -7.68001,-16.6 -16.96,-16.6 -9.31999,0 -17,7.28001 -17,16.6 0,9.23999 7.68001,16.6 17,16.6 9.27999,0 16.96,-7.40001 16.96,-16.6 m -6.24,0 c 0,5.79999 -4.80001,10.72 -10.72,10.72 -5.96,0 -10.76,-4.92001 -10.76,-10.72 0,-5.83999 4.8,-10.72 10.76,-10.72 5.91999,0 10.72,4.88001 10.72,10.72"
         style="font-variant:normal;font-weight:500;font-stretch:normal;fill:#ffffff;font-family:Keep Calm;-inkscape-font-specification:Keep Calm Medium"
         id="path3895" />
      <path
         d="m 422.01453,510.71933 -6.76,0 -9.28,15.88 -8.88,-15.88 -7,0 0,32 6.08,0 0,-21.52 9.68,17.16 10.08,-17 0,21.36 6.08,0 0,-32"
         style="font-variant:normal;font-weight:500;font-stretch:normal;fill:#ffffff;font-family:Keep Calm;-inkscape-font-specification:Keep Calm Medium"
         id="path3897" />
      <path
         d="m 470.00328,526.15933 -12.52,0 0,5.28 6.56,0 0,3.08 c -2.04,1.76 -4.64,2.92 -7.52,2.92 -6.07999,0 -11,-4.84001 -11,-10.76 0,-5.87999 4.92001,-10.68 11,-10.68 3.68,0 6.64,1.32 9.04,4.56 l 4.2,-4.28 c -3.2,-3.72 -7.76,-6.16 -13.24,-6.16 -9.47999,0 -17.16,7.40001 -17.16,16.56 0,9.39999 7.72001,16.64 17.16,16.64 4.8,0 9.84,-2 13.48,-6.48 l 0,-10.68"
         style="font-variant:normal;font-weight:500;font-stretch:normal;fill:#ffffff;font-family:Keep Calm;-inkscape-font-specification:Keep Calm Medium"
         id="path3899" />
      <path
         d="m 480.98203,510.75933 -6.2,0 0,31.96 6.2,0 0,-31.96"
         style="font-variant:normal;font-weight:500;font-stretch:normal;fill:#ffffff;font-family:Keep Calm;-inkscape-font-specification:Keep Calm Medium"
         id="path3901" />
      <path
         d="m 508.92953,510.75933 -23.96,0 0,5.52 8.84,0 0,26.44 6.28,0 0,-26.44 8.84,0 0,-5.52"
         style="font-variant:normal;font-weight:500;font-stretch:normal;fill:#ffffff;font-family:Keep Calm;-inkscape-font-specification:Keep Calm Medium"
         id="path3903" />
    </g>
    <g
       transform="matrix(0.49647992,0,0,-0.49647992,298.82766,342.14408)"
       inkscape:label="radare primeros bocetos"
       id="g3012"
       style="fill:#ffffff">
      <g
         transform="translate(-574.48081,-692.03162)"
         id="g4037"
         style="fill:#ffffff">
        <path
           inkscape:connector-curvature="0"
           id="path3492-8"
           style="fill:#ffffff;fill-opacity:1;fill-rule:nonzero;stroke:none"
           d="m 717.48563,860.61081 0,-95.251 11.881,0 0,-5.379 -82.928,0 0,5.379 15.912,0 0,51.547 c 0,9.188 0.673,17.258 -2.463,25.998 -0.673,2.241 -7.394,15.015 -10.758,9.413 0.898,-3.363 1.346,-7.172 1.346,-10.536 0,-15.013 -10.311,-24.65 -25.102,-24.65 -15.464,0 -26.221,10.757 -26.221,26.221 0,16.136 14.12,24.875 28.911,24.875 15.909,0 28.683,-8.514 36.085,-22.186 l 0.444,0 0,22.637 c 21.513,-0.673 43.254,-2.69 64.774,-2.69 l 0,-5.378 -11.881,0 z" />
        <path
           inkscape:connector-curvature="0"
           id="path3496-8"
           style="fill:#ffffff;fill-opacity:1;fill-rule:nonzero;stroke:none"
           d="m 717.30203,814.96091 109.965,54.98 0,-109.96 -109.965,54.98 z" />
        <path
           inkscape:connector-curvature="0"
           id="path3500-9"
           style="fill:#ffffff;fill-opacity:1;fill-rule:nonzero;stroke:none"
           d="m 827.26683,814.96091 109.959,54.98 0,-109.96 -109.959,54.98 z" />
      </g>
    </g>
  </g>
</svg>
