<!DOCTYPE svg PUBLIC "-//W3C//DTD SVG 20010904//EN" "http://www.w3.org/TR/2001/REC-SVG-20010904/DTD/svg10.dtd">
<svg version="1.0" xmlns="http://www.w3.org/2000/svg" width="1600px" height="403px" viewBox="0 0 16000 4030" preserveAspectRatio="xMidYMid meet">
<g id="layer101" fill="#090909" stroke="none">
 <path d="M6235 3365 c-27 -8 -59 -14 -70 -15 -10 0 -61 -21 -112 -46 -166 -81 -278 -222 -303 -379 -10 -65 -10 -86 6 -170 4 -16 -15 13 -41 65 -98 196 -146 268 -207 318 -57 45 -130 45 -214 1 -71 -37 -196 -163 -260 -262 -45 -69 -134 -254 -134 -278 0 -24 -16 4 -29 51 -7 25 -19 59 -26 75 -7 17 -18 47 -25 67 -6 20 -21 52 -33 70 -13 18 -35 54 -50 80 -73 126 -206 230 -357 279 -149 49 -295 43 -553 -21 -112 -28 -236 -92 -313 -163 -58 -54 -65 -57 -71 -39 -12 32 -148 177 -212 226 -86 66 -164 90 -272 82 -174 -12 -374 -57 -424 -95 -5 -5 -21 -11 -35 -14 -14 -4 -48 -21 -76 -40 -28 -18 -58 -36 -66 -40 -33 -12 -114 -123 -130 -178 -21 -71 -47 -216 -59 -331 -12 -105 -3 -400 15 -525 l12 -82 -51 -5 c-27 -3 -84 -8 -125 -11 -121 -9 -352 -73 -515 -143 -90 -39 -265 -129 -286 -147 -8 -8 -20 -15 -25 -15 -5 0 -43 -23 -84 -51 l-75 -51 -7 229 c-8 277 -30 517 -57 598 -54 168 -108 245 -172 245 -67 0 -102 -77 -60 -131 10 -13 34 -64 53 -114 29 -73 39 -119 54 -245 20 -170 25 -542 10 -690 -8 -84 -8 -86 19 -118 43 -51 80 -45 174 26 171 131 357 241 551 326 167 72 411 127 583 130 l49 1 41 -108 c50 -132 110 -204 190 -226 89 -25 248 2 320 55 144 105 103 315 -78 407 -42 21 -127 37 -241 45 l-98 7 -15 65 c-11 48 -15 133 -15 320 0 237 2 264 26 377 16 75 34 134 48 152 54 77 233 162 404 192 150 26 215 25 275 -6 62 -31 165 -135 222 -222 l43 -66 2 -121 c2 -98 6 -132 24 -180 66 -172 179 -297 375 -411 28 -16 79 -50 115 -76 157 -113 302 -161 585 -190 160 -16 538 -16 588 0 46 15 67 44 67 92 0 54 -38 83 -101 76 l-46 -6 3 42 c12 146 27 278 35 312 60 243 170 461 288 567 50 45 109 80 122 72 4 -2 25 -30 46 -62 41 -58 70 -114 189 -356 110 -223 145 -277 243 -379 80 -83 137 -126 228 -172 97 -48 109 -52 250 -77 184 -32 476 -32 613 0 107 25 130 43 130 101 0 26 -7 44 -23 59 -21 20 -34 22 -148 22 -156 0 -238 12 -364 52 -99 30 -270 109 -325 148 -15 11 -31 20 -35 20 -9 0 -79 54 -124 94 -83 76 -153 210 -182 349 -29 137 66 291 226 366 67 31 230 64 288 58 80 -8 193 -45 282 -93 225 -121 351 -304 430 -624 64 -262 77 -456 96 -1465 10 -537 16 -624 45 -656 23 -25 74 -25 109 2 l27 22 -5 256 c-2 141 -10 473 -18 737 -19 694 -1 888 110 1188 24 65 66 132 114 184 42 43 91 44 166 1 108 -62 215 -193 494 -604 46 -68 188 -217 268 -281 76 -60 219 -135 305 -159 32 -9 91 -25 129 -36 120 -33 287 -45 412 -30 135 17 203 34 267 69 61 32 87 70 114 160 43 142 51 243 31 375 -13 86 -1 169 44 292 16 44 33 96 39 115 23 80 111 193 163 210 46 15 107 -4 215 -68 134 -79 219 -165 276 -275 29 -55 54 -177 65 -322 11 -134 10 -147 -15 -288 -35 -196 -34 -218 5 -251 41 -35 65 -33 104 10 74 79 87 90 133 114 89 45 170 72 275 91 93 16 324 49 348 49 4 0 11 -30 17 -67 22 -148 96 -273 175 -294 58 -16 239 -4 292 20 43 19 100 77 116 118 14 37 11 110 -8 177 -35 127 -161 204 -345 214 l-98 5 0 115 c0 285 135 573 310 662 122 61 228 64 395 10 80 -25 266 -102 284 -116 2 -2 -11 -24 -28 -50 -59 -90 -74 -146 -68 -269 8 -185 80 -372 202 -525 76 -95 181 -189 243 -218 47 -21 64 -24 122 -19 93 8 151 38 195 102 51 74 62 137 47 272 -29 271 -94 406 -290 601 -66 65 -108 114 -100 116 7 2 33 11 58 19 100 35 162 48 320 71 500 73 978 85 1375 35 188 -23 402 -68 430 -89 6 -4 28 -13 50 -20 22 -7 58 -23 81 -36 22 -13 50 -24 61 -24 25 0 73 53 73 80 0 25 -45 77 -83 97 -51 26 -258 91 -327 102 -458 76 -1003 85 -1530 26 -69 -7 -153 -16 -186 -20 -56 -5 -156 -27 -314 -70 -30 -8 -85 -29 -122 -46 l-67 -32 -38 26 c-21 14 -56 33 -78 42 -22 9 -62 27 -90 40 -49 23 -197 72 -285 96 -108 28 -280 7 -397 -48 -68 -32 -171 -126 -223 -203 -125 -184 -182 -376 -182 -607 0 -117 -2 -133 -17 -133 -25 -1 -227 -26 -311 -40 -100 -16 -201 -42 -280 -73 l-65 -25 -1 182 c-2 231 -23 352 -86 474 -74 145 -228 289 -404 378 -95 49 -97 49 -193 49 -113 0 -138 -10 -216 -89 -47 -47 -145 -213 -145 -248 0 -7 -9 -31 -19 -53 l-18 -40 -28 45 c-27 43 -93 113 -166 173 -108 92 -364 174 -570 184 -203 10 -423 -36 -541 -112 -104 -68 -181 -178 -197 -281 l-6 -43 -38 52 c-110 148 -229 257 -337 306 -57 26 -167 28 -213 4 -69 -35 -130 -99 -176 -183 -39 -73 -71 -140 -71 -152 0 -15 -33 -104 -42 -113 -3 -3 -11 24 -18 62 -14 82 -83 269 -124 338 -59 99 -82 130 -156 205 -121 123 -278 212 -440 251 -96 23 -250 24 -325 4z m-1934 -281 c250 -74 394 -284 454 -663 13 -86 27 -196 30 -246 3 -49 8 -108 11 -129 l5 -39 -98 6 c-201 13 -529 88 -668 152 -17 7 -53 23 -80 35 -48 20 -125 84 -125 103 0 5 -16 27 -35 50 -19 22 -35 44 -35 49 0 5 -12 27 -27 51 -15 23 -64 116 -109 207 l-83 165 19 30 c40 65 150 141 251 174 203 67 381 87 490 55z m4749 -228 c187 -46 297 -96 387 -176 74 -65 117 -129 153 -229 l31 -87 -21 -94 c-11 -52 -26 -154 -32 -227 l-12 -133 -25 0 c-14 0 -82 7 -151 15 -534 62 -770 132 -900 266 -104 108 -167 294 -141 417 15 69 67 137 134 177 47 27 192 71 282 85 74 11 221 4 295 -14z m3756 -199 c136 -100 259 -266 298 -400 36 -122 51 -256 35 -305 -16 -50 -25 -60 -67 -72 -61 -16 -125 25 -235 155 -122 144 -215 424 -178 537 14 43 67 128 80 128 5 0 35 -19 67 -43z m-1058 -709 c75 -18 117 -50 138 -103 17 -45 17 -47 -2 -65 -20 -21 -150 -45 -179 -34 -27 11 -54 73 -79 187 -6 26 -5 27 34 27 23 0 62 -5 88 -12z m-9154 -123 c66 -20 90 -37 106 -74 11 -28 10 -34 -5 -51 -32 -35 -158 -55 -201 -32 -17 9 -84 151 -84 178 0 11 129 -4 184 -21z"/>
 </g>

</svg>