<svg xmlns="http://www.w3.org/2000/svg" xmlns:xlink="http://www.w3.org/1999/xlink" viewBox="0 0 581.21 175.77"><defs><style>.cls-1,.cls-2{fill-rule:evenodd;}.cls-1{fill:url(#Neues_Verlaufsfeld_1);}.cls-2{fill:url(#Neues_Verlaufsfeld_1-2);}</style><linearGradient id="Neues_Verlaufsfeld_1" x1="-170.28" y1="-369.25" x2="-51.93" y2="-369.25" gradientTransform="matrix(0.51, 0.86, -0.86, 0.51, -118.69, 385.29)" gradientUnits="userSpaceOnUse"><stop offset="0" stop-color="#6adbff"/><stop offset="1" stop-color="#3f46ff"/></linearGradient><linearGradient id="Neues_Verlaufsfeld_1-2" x1="-242.28" y1="-313" x2="-73.53" y2="-313" xlink:href="#Neues_Verlaufsfeld_1"/></defs><title>Logo</title><g id="Ebene_2" data-name="Ebene 2"><g id="Text_Logo" data-name="Text Logo"><polygon id="_02" data-name="02" class="cls-1" points="150.1 0.02 201.51 85.79 152.16 173.66 115.72 173.64 67.53 93.23 84.69 61.08 132.89 141.5 165.07 85.77 113.66 0 150.1 0.02"/><polygon id="_01" data-name="01" class="cls-2" points="51.41 175.76 87.85 175.77 36.44 90 68.63 34.28 116.82 114.69 133.99 82.54 85.79 2.13 49.35 2.11 0 89.98 51.41 175.76"/><path style="fill:#ffffff" d="M329.68,139.12H251.8V125.75l52.57-78.31H251.48V30h77.88V43.34L276.78,121.7h52.9Z"/><path style="fill:#ffffff" d="M359.83,137.41l-29-80.11H352.1l16.83,50.87L384.81,57.3h21.25L375.59,151c-3.19,9.65-12.2,20.09-27.86,20.09a32.59,32.59,0,0,1-9.85-1.34v-16.3a24.19,24.19,0,0,0,4.26.27c8.63,0,13.26-3,16.09-11.24Z"/><path style="fill:#ffffff" d="M460,139.12l-.11-5.6h-.48c-4.26,4.37-10.22,7.14-18.59,7.14-21,0-35.58-17.36-35.58-42.29,0-24.77,14.6-42.14,35.42-42.14,8.15,0,14,2.72,18.22,7h.48V30h20.35v109.1ZM442.72,124c9.54,0,15.23-6.77,16.83-13.37a73.82,73.82,0,0,0,1.33-12.47,55.65,55.65,0,0,0-1.27-11c-1.49-5.43-6.29-14.38-16.94-14.38-11.88,0-17.95,10.76-17.95,25.57C424.72,113.44,430.79,124,442.72,124Z"/><path style="fill:#ffffff" d="M489.35,39.4c0-5.76,5.06-10.87,11.72-10.87A11.21,11.21,0,0,1,512.62,39.4c0,6-4.9,10.86-11.55,10.86S489.35,45.36,489.35,39.4Zm21.84,99.72H490.84V57.3h20.35Z"/><path style="fill:#ffffff" d="M551,56.23c13.58,0,24.72,5.54,30.2,15.93l-14.91,9c-1.33-2.34-5.22-8.26-14.49-8.26-6.92,0-11.51,3.31-11.51,7.46,0,4.69,4.37,6.61,11.78,8.84l7,2c15.07,4.75,22,14.44,22,24.51,0,13-11.82,25-30.95,25-14.22,0-26.37-6.29-33-17.47l15.5-9.91c2.18,4.26,6.81,10.23,16.62,10.23,7.29,0,12.09-3.46,12.09-7.78,0-4.63-4.69-7.3-13.16-10.07l-7.83-2.29c-14.17-4.58-20-14-20-23.22C520.38,67,531.94,56.23,551,56.23Z"/></g></g></svg>